<?xml version="1.0" standalone="no"?>
<!DOCTYPE svg PUBLIC "-//W3C//DTD SVG 20010904//EN"
 "http://www.w3.org/TR/2001/REC-SVG-20010904/DTD/svg10.dtd">
<svg version="1.0" xmlns="http://www.w3.org/2000/svg"
 width="75.000000pt" height="41.000000pt" viewBox="0 0 75.000000 41.000000"
 preserveAspectRatio="xMidYMid meet">

<g transform="translate(0.000000,41.000000) scale(0.100000,-0.100000)"
fill="#000000" stroke="none">
<path d="M255 366 c-25 -25 -34 -66 -15 -66 6 0 10 7 10 15 0 27 39 57 70 53
16 -1 31 2 32 7 2 6 -14 11 -34 13 -29 3 -43 -2 -63 -22z"/>
<path d="M373 366 c-27 -24 -28 -27 -31 -145 -3 -105 -2 -121 12 -121 14 0 16
17 16 115 0 102 2 117 20 135 11 11 29 20 40 20 24 0 70 -42 70 -63 0 -23 -40
-67 -61 -67 -10 0 -19 -4 -19 -10 0 -20 51 -10 75 15 17 16 25 35 25 60 0 76
-87 112 -147 61z"/>
<path d="M282 338 c-14 -14 -16 -38 -3 -38 5 0 11 7 15 15 3 8 15 15 26 15 11
0 20 5 20 10 0 14 -43 13 -58 -2z"/>
<path d="M390 331 c-5 -11 -10 -67 -10 -125 0 -87 3 -106 15 -106 12 0 15 22
17 113 3 104 4 112 23 112 28 0 33 -35 6 -42 -12 -3 -21 -12 -21 -19 0 -17 1
-17 34 -4 20 7 26 17 26 38 0 15 -5 33 -12 40 -19 19 -66 15 -78 -7z"/>
<path d="M284 270 c-47 -19 -70 -93 -41 -131 24 -31 87 -52 87 -29 0 6 -6 10
-14 10 -24 0 -66 41 -66 64 0 33 28 66 56 66 15 0 24 6 24 15 0 17 -14 18 -46
5z"/>
<path d="M288 228 c-8 -7 -18 -20 -21 -29 -7 -22 20 -59 44 -59 25 0 25 16 -1
23 -35 9 -24 54 13 48 4 0 7 6 7 14 0 18 -21 19 -42 3z"/>
<path d="M460 175 c-7 -8 -19 -15 -26 -15 -8 0 -14 -4 -14 -10 0 -5 8 -10 18
-10 22 0 57 35 44 44 -5 3 -15 -1 -22 -9z"/>
<path d="M498 165 c-6 -14 -26 -30 -45 -37 -39 -14 -43 -28 -8 -28 31 0 75 41
75 70 0 27 -8 25 -22 -5z"/>
<path d="M230 40 c0 -11 5 -20 11 -20 6 0 9 6 6 14 -3 8 -1 17 6 20 7 2 4 5
-5 5 -12 1 -18 -6 -18 -19z"/>
<path d="M318 38 c4 -16 7 -18 10 -8 3 8 10 18 16 22 6 5 2 8 -11 8 -17 0 -20
-4 -15 -22z"/>
<path d="M404 45 c-4 -9 -4 -19 0 -22 3 -4 6 2 7 13 0 18 1 18 9 -1 7 -16 9
-17 9 -3 1 23 -18 33 -25 13z"/>
<path d="M480 40 c0 -18 3 -19 20 -10 22 12 18 30 -6 30 -8 0 -14 -9 -14 -20z"/>
</g>
</svg>
